<svg xmlns="http://www.w3.org/2000/svg" viewBox="0 0 1200 630">
  <defs>
    <linearGradient id="bg" x1="0" y1="0" x2="1" y2="1">
      <stop offset="0%" stop-color="#0f2417"/>
      <stop offset="100%" stop-color="#0a1610"/>
    </linearGradient>
    <linearGradient id="leaf" x1="0" y1="0" x2="0" y2="1">
      <stop offset="0%" stop-color="#4ade80"/>
      <stop offset="100%" stop-color="#16a34a"/>
    </linearGradient>
  </defs>
  <rect width="1200" height="630" fill="url(#bg)"/>

  <g fill="#1f7a4d" opacity="0.35">
    <ellipse cx="980" cy="470" rx="260" ry="200"/>
    <ellipse cx="1120" cy="360" rx="180" ry="150"/>
  </g>
  <g fill="#2fa968" opacity="0.25">
    <ellipse cx="1030" cy="420" rx="150" ry="110"/>
  </g>

  <g transform="translate(90,90)">
    <rect width="76" height="76" rx="20" fill="url(#leaf)"/>
    <path d="M38 66V38M38 38c0-16 13-29 29-29 0 16-13 29-29 29Zm0 0C38 22 25 9 9 9c0 16 13 29 29 29Z"
          fill="none" stroke="#ffffff" stroke-width="5" stroke-linecap="round" stroke-linejoin="round" transform="translate(4,4) scale(0.85)"/>
  </g>

  <text x="90" y="260" fill="#eaf3ec" font-family="-apple-system, Segoe UI, Roboto, Arial, sans-serif" font-size="58" font-weight="700">Hogan Phenocam</text>
  <text x="90" y="310" fill="#9db3a5" font-family="-apple-system, Segoe UI, Roboto, Arial, sans-serif" font-size="26">Live canopy phenology · College of the Holy Cross</text>

  <g transform="translate(90,370)">
    <rect width="14" height="14" rx="4" fill="#22c55e"/>
    <text x="24" y="12" fill="#c9d6cf" font-family="-apple-system, Segoe UI, Roboto, Arial, sans-serif" font-size="18">GCC · RCC · BCC · ExG tracked every 30 minutes</text>
  </g>

  <text x="90" y="560" fill="#4ade80" font-family="SF Mono, Consolas, monospace" font-size="20" opacity="0.8">GCC = G / (R + G + B)</text>
</svg>
